<svg width="66" height="37" viewBox="0 0 66 37" fill="none" xmlns="http://www.w3.org/2000/svg">
<g id="pod 2">
<path id="pod" fill-rule="evenodd" clip-rule="evenodd" d="M55.0884 29.3871C57.4087 29.3871 59.3071 28.411 60.7837 26.4588L61.377 28.9914H65.9253V0.5H60.1509V11.1051C59.5708 10.3401 58.7996 9.69376 57.8372 9.16614C56.8748 8.63852 55.7607 8.37471 54.4951 8.37471C53.0186 8.37471 51.6936 8.75724 50.5203 9.52228C49.3469 10.2873 48.4175 11.4349 47.7319 12.965C47.0464 14.4951 46.7036 16.3549 46.7036 18.5446V18.9799C46.7036 21.275 47.0727 23.2008 47.811 24.7573C48.5493 26.3138 49.5513 27.4745 50.8169 28.2396C52.0825 29.0046 53.5063 29.3871 55.0884 29.3871ZM6.0453 26.6567V36.1538H0.270874V8.77043H4.81922L5.41249 11.303C6.88905 9.35081 8.7875 8.37471 11.1078 8.37471C12.6898 8.37471 14.1137 8.75724 15.3793 9.52228C16.6449 10.2873 17.6469 11.4481 18.3852 13.0046C19.1235 14.561 19.4926 16.4869 19.4926 18.782V19.2173C19.4926 21.4069 19.1498 23.2668 18.4643 24.7969C17.7787 26.3269 16.8493 27.4745 15.6759 28.2396C14.5026 29.0046 13.1776 29.3871 11.7011 29.3871C10.4354 29.3871 9.32143 29.1233 8.35903 28.5957C7.39662 28.0681 6.62538 27.4218 6.0453 26.6567ZM7.11317 23.9461C7.82509 24.7771 8.73476 25.1926 9.84219 25.1926C10.9496 25.1926 11.8593 24.7771 12.5712 23.9461C13.2831 23.1151 13.6391 21.9345 13.6391 20.4044V17.12C13.6391 15.5635 13.2831 14.3764 12.5712 13.5586C11.8593 12.7408 10.9496 12.3319 9.84219 12.3319C8.73476 12.3319 7.82509 12.7408 7.11317 13.5586C6.40126 14.3764 6.0453 15.5635 6.0453 17.12V20.4044C6.0453 21.9345 6.40126 23.1151 7.11317 23.9461ZM33.4145 29.3871C35.2866 29.3871 36.9741 28.9914 38.477 28.2C39.9799 27.4086 41.1599 26.261 42.0168 24.7573C42.8738 23.2536 43.3022 21.486 43.3022 19.4547V18.3071C43.3022 16.2758 42.8738 14.5083 42.0168 13.0046C41.1599 11.5009 39.9799 10.3533 38.477 9.56185C36.9741 8.77043 35.2866 8.37471 33.4145 8.37471H32.7817C30.9096 8.37471 29.2221 8.77043 27.7192 9.56185C26.2162 10.3533 25.0363 11.5009 24.1794 13.0046C23.3224 14.5083 22.894 16.2758 22.894 18.3071V19.4547C22.894 21.486 23.3224 23.2536 24.1794 24.7573C25.0363 26.261 26.2162 27.4086 27.7192 28.2C29.2221 28.9914 30.9096 29.3871 32.7817 29.3871H33.4145ZM29.9538 24.1637C30.758 25.0079 31.8061 25.43 33.0981 25.43C34.3901 25.43 35.4382 25.0079 36.2424 24.1637C37.0466 23.3195 37.4487 22.0928 37.4487 20.4836V17.2783C37.4487 15.669 37.0466 14.4423 36.2424 13.5981C35.4382 12.7539 34.3901 12.3319 33.0981 12.3319C31.8061 12.3319 30.758 12.7539 29.9538 13.5981C29.1496 14.4423 28.7475 15.669 28.7475 17.2783V20.4836C28.7475 22.0928 29.1496 23.3195 29.9538 24.1637ZM53.625 24.1835C54.3369 25.0145 55.2466 25.43 56.354 25.43C57.4614 25.43 58.3711 25.0145 59.083 24.1835C59.7949 23.3525 60.1509 22.1719 60.1509 20.6418V17.3574C60.1509 15.8009 59.7949 14.6138 59.083 13.796C58.3711 12.9782 57.4614 12.5693 56.354 12.5693C55.2466 12.5693 54.3369 12.9782 53.625 13.796C52.9131 14.6138 52.5571 15.8009 52.5571 17.3574V20.6418C52.5571 22.1719 52.9131 23.3525 53.625 24.1835Z" fill="white"/>
</g>
</svg>
